<?xml version="1.0" encoding="utf-8"?>
<!-- Generator: Adobe Illustrator 19.1.0, SVG Export Plug-In . SVG Version: 6.00 Build 0)  -->
<svg version="1.1" id="Layer_1" xmlns="http://www.w3.org/2000/svg" xmlns:xlink="http://www.w3.org/1999/xlink" x="0px" y="0px"
	 viewBox="0 0 43 32" style="enable-background:new 0 0 43 32;" xml:space="preserve">
<style type="text/css">
	.st0{fill:#05417C;}
	.st1{clip-path:url(#SVGID_2_);fill:#05417C;}
</style>
<g>
	<path class="st0" d="M9.9,5.4L9.9,5.4c0.1,0.2,0.2,0.3,0.4,0.3c3.9-0.9,7.4,0.6,8.4,1c0.2,0.1,0.4,0,0.4-0.1l0-0.1
		c0.1-0.2,0-0.4-0.1-0.5C18,5.6,14.3,4.1,10.1,5C9.9,5.1,9.8,5.3,9.9,5.4L9.9,5.4z M9.9,5.4"/>
	<path class="st0" d="M10.3,7.8c3.9-0.9,7.4,0.5,8.4,1c0.2,0.1,0.4,0,0.4-0.1l0-0.1c0.1-0.2,0-0.4-0.1-0.5c-1.1-0.5-4.7-2.1-8.9-1.1
		c-0.2,0-0.3,0.2-0.3,0.4l0,0.1C9.9,7.8,10.1,7.9,10.3,7.8L10.3,7.8z M10.3,7.8"/>
	<path class="st0" d="M9.9,9.5c0,0.2,0.2,0.3,0.4,0.2c3.9-0.9,7.4,0.6,8.4,1c0.2,0.1,0.4,0,0.4-0.1l0-0.1c0.1-0.2,0-0.4-0.1-0.5
		c-1.1-0.5-4.7-2.1-8.9-1.1C9.9,9.1,9.8,9.3,9.9,9.5L9.9,9.5z M9.9,9.5"/>
	<path class="st0" d="M19,12.3c-1.1-0.5-4.7-2.1-8.9-1.1c-0.2,0-0.3,0.2-0.3,0.4l0,0.1c0,0.2,0.2,0.3,0.4,0.2c3.9-0.9,7.4,0.5,8.4,1
		c0.2,0.1,0.4,0,0.4-0.1l0-0.1C19.3,12.6,19.2,12.4,19,12.3L19,12.3z M19,12.3"/>
	<path class="st0" d="M19,14.3c-1.1-0.5-4.7-2.1-8.9-1.1c-0.2,0-0.3,0.2-0.3,0.4l0,0.1c0,0.2,0.2,0.3,0.4,0.2c3.9-0.9,7.4,0.5,8.4,1
		c0.2,0.1,0.4,0,0.4-0.1l0-0.1C19.3,14.6,19.2,14.4,19,14.3L19,14.3z M19,14.3"/>
	<path class="st0" d="M19,16.3c-1.1-0.5-4.7-2.1-8.9-1.1c-0.2,0-0.3,0.2-0.3,0.4l0,0.1c0,0.2,0.2,0.3,0.4,0.2c3.9-0.9,7.4,0.6,8.4,1
		c0.2,0.1,0.4,0,0.4-0.1l0-0.1C19.3,16.6,19.2,16.4,19,16.3L19,16.3z M19,16.3"/>
	<path class="st0" d="M19,18.4c-1.1-0.5-4.7-2.1-8.9-1.1c-0.2,0-0.3,0.2-0.2,0.4l0,0.1c0,0.2,0.2,0.3,0.4,0.2c3.9-0.9,7.4,0.6,8.4,1
		c0.2,0.1,0.4,0,0.4-0.1l0-0.1C19.3,18.7,19.2,18.4,19,18.4L19,18.4z M19,18.4"/>
	<path class="st0" d="M24,6.1c-0.2,0.1-0.2,0.3-0.1,0.5l0,0.1c0.1,0.2,0.3,0.2,0.4,0.1c1-0.5,4.5-1.9,8.4-1c0.2,0,0.4-0.1,0.4-0.2
		l0-0.1c0-0.2-0.1-0.4-0.3-0.4C28.7,4.1,25,5.6,24,6.1L24,6.1z M24,6.1"/>
	<path class="st0" d="M24.3,8.9c1-0.5,4.5-1.9,8.4-1c0.2,0,0.4-0.1,0.4-0.2l0-0.1c0-0.2-0.1-0.4-0.3-0.4c-4.2-1-7.8,0.6-8.9,1.1
		c-0.2,0.1-0.2,0.3-0.1,0.5l0,0.1C23.9,8.9,24.1,8.9,24.3,8.9L24.3,8.9z M24.3,8.9"/>
	<path class="st0" d="M23.8,10.7c0.1,0.2,0.3,0.2,0.4,0.1c1-0.5,4.5-1.9,8.4-1c0.2,0,0.4-0.1,0.4-0.2l0-0.1c0-0.2-0.1-0.4-0.3-0.4
		c-4.2-1-7.8,0.6-8.9,1.1C23.8,10.2,23.7,10.4,23.8,10.7L23.8,10.7z M23.8,10.7"/>
	<path class="st0" d="M23.8,12.8c0.1,0.2,0.3,0.2,0.4,0.1c1-0.5,4.5-1.9,8.4-1c0.2,0,0.4-0.1,0.4-0.2l0-0.1c0-0.2-0.1-0.4-0.3-0.4
		c-4.2-1-7.8,0.6-8.9,1.1C23.8,12.4,23.7,12.6,23.8,12.8L23.8,12.8z M23.8,12.8"/>
	<path class="st0" d="M23.8,14.8c0.1,0.2,0.3,0.2,0.4,0.1c1-0.5,4.5-1.9,8.4-1c0.2,0,0.4-0.1,0.4-0.2l0-0.1c0-0.2-0.1-0.4-0.3-0.4
		c-4.2-1-7.8,0.6-8.9,1.1C23.8,14.4,23.7,14.6,23.8,14.8L23.8,14.8z M23.8,14.8"/>
	<path class="st0" d="M23.8,16.8c0.1,0.2,0.3,0.2,0.4,0.1c1-0.5,4.5-1.9,8.4-1c0.2,0,0.4-0.1,0.4-0.2l0-0.1c0-0.2-0.1-0.4-0.3-0.4
		c-4.2-1-7.8,0.6-8.9,1.1C23.8,16.4,23.7,16.6,23.8,16.8L23.8,16.8z M23.8,16.8"/>
	<g>
		<defs>
			<rect id="SVGID_1_" x="5.6" y="1" width="31.9" height="25"/>
		</defs>
		<clipPath id="SVGID_2_">
			<use xlink:href="#SVGID_1_"  style="overflow:visible;"/>
		</clipPath>
		<path class="st1" d="M32.9,17.3c-4.2-1-7.8,0.6-8.9,1.1c-0.2,0.1-0.2,0.3-0.1,0.5l0,0.1c0.1,0.2,0.3,0.2,0.4,0.1
			c1-0.5,4.5-1.9,8.4-1c0.2,0,0.4-0.1,0.4-0.2l0-0.1C33.2,17.5,33.1,17.3,32.9,17.3L32.9,17.3z M32.9,17.3"/>
		<path class="st1" d="M37.2,4.6c-0.3-0.3-0.7-0.6-1.3-0.7V2.5c0-0.3-0.2-0.6-0.5-0.6c-0.9-0.3-3-0.9-5.4-0.9c-3.3,0-6.2,1-8.6,3
			c-2.3-2-5.2-3-8.6-3c-2.3,0-4.5,0.6-5.4,0.9C7.3,2,7.1,2.2,7.1,2.5v1.4C6.5,4,6.1,4.4,5.8,4.6C5.6,4.8,5.6,5,5.6,5.2v19
			c0,0.4,0.4,0.6,0.7,0.5c1.3-0.5,4.1-1.5,6.2-1.5c2.1,0,4.2,0.3,5.8,0.8c-0.1,0.1-0.1,0.2-0.1,0.4c0,0.9,1.5,1.6,3.3,1.6
			c1.8,0,3.3-0.7,3.3-1.6c0-0.1,0-0.3-0.1-0.4c1.7-0.5,3.7-0.8,5.8-0.8c2.1,0,4.9,1,6.2,1.5c0.3,0.1,0.7-0.1,0.7-0.5v-19
			C37.4,5,37.4,4.8,37.2,4.6L37.2,4.6z M21.1,22.3c-1.4-0.6-5.2-1.9-8.9-1.9c-1.6,0-3,0.2-4.2,0.7V2.7c0.7-0.2,2.6-0.8,4.9-0.8
			c3.1,0,6,1.1,8.2,2.9V22.3z M35,21.1c-1.2-0.5-2.6-0.7-4.2-0.7c-3.7,0-7.5,1.3-8.9,1.9V4.8C24.1,3,27,1.9,30.1,1.9
			c2.3,0,4.2,0.5,4.9,0.8V21.1z M35,21.1"/>
	</g>
</g>
</svg>
