<?xml version="1.0" encoding="utf-8"?>
<!-- Generator: Adobe Illustrator 19.1.0, SVG Export Plug-In . SVG Version: 6.00 Build 0)  -->
<svg version="1.1" id="Layer_1" xmlns="http://www.w3.org/2000/svg" xmlns:xlink="http://www.w3.org/1999/xlink" x="0px" y="0px"
	 viewBox="0 0 43 32" style="enable-background:new 0 0 43 32;" xml:space="preserve">
<style type="text/css">
	.st0{fill:#05417C;}
	.st1{fill:#FFFFFF;}
</style>
<g>
	<path class="st0" d="M23.3,25H8.2c-1.7,0-3-1.4-3-3l0-7.2c0-1.7,1.3-3,3-3h15.1c1.6,0,3,1.3,3,3V22C26.3,23.6,25,25,23.3,25z"/>
	<path class="st1" d="M21.4,23.8H10.6c-0.8,0-1.4-0.6-1.4-1.4v0c0-0.8,0.6-1.4,1.4-1.4h10.8c0.8,0,1.4,0.6,1.4,1.4v0
		C22.8,23.1,22.2,23.8,21.4,23.8z"/>
	<circle class="st0" cx="9" cy="5.1" r="4"/>
	<circle class="st0" cx="22.8" cy="5.1" r="4"/>
	<path class="st0" d="M38.3,12.9c-5.1,0-9.2,2.4-9.2,5.4s4.1,5.4,9.2,5.4V12.9z"/>
</g>
</svg>
