<?xml version="1.0" encoding="utf-8"?>
<!-- Generator: Adobe Illustrator 19.1.0, SVG Export Plug-In . SVG Version: 6.00 Build 0)  -->
<svg version="1.1" id="Layer_1" xmlns="http://www.w3.org/2000/svg" xmlns:xlink="http://www.w3.org/1999/xlink" x="0px" y="0px"
	 viewBox="0 0 43 32" style="enable-background:new 0 0 43 32;" xml:space="preserve">
<style type="text/css">
	.st0{clip-path:url(#SVGID_2_);fill:#05417C;}
	.st1{fill:#05417C;}
</style>
<g>
	<g>
		<defs>
			<rect id="SVGID_1_" x="0.6" y="-2" width="41.9" height="26.8"/>
		</defs>
		<clipPath id="SVGID_2_">
			<use xlink:href="#SVGID_1_"  style="overflow:visible;"/>
		</clipPath>
		<path class="st0" d="M21.2,11.5c3,0,5.5-2.5,5.5-5.5c0-3-2.5-5.5-5.5-5.5c-3,0-5.5,2.5-5.5,5.5C15.7,9,18.2,11.5,21.2,11.5
			L21.2,11.5z M21.2,11.5"/>
	</g>
	<path class="st1" d="M25.6,12.4h-8.8c-1.6,0-2.9,1.4-2.9,3.2v8.8c0,0.1,0.1,0.2,0.1,0.3h14.4c0-0.1,0.1-0.2,0.1-0.3v-8.8
		C28.5,13.8,27.2,12.4,25.6,12.4L25.6,12.4z M25.6,12.4"/>
	<path class="st1" d="M36,14.1c2.4,0,4.4-2,4.4-4.4c0-2.4-2-4.4-4.4-4.4c-2.4,0-4.4,2-4.4,4.4C31.6,12.1,33.6,14.1,36,14.1L36,14.1z
		 M36,14.1"/>
	<path class="st1" d="M39.5,14.8h-7c-1.3,0-2.3,1.2-2.3,2.6v7.1c0,0.1,0,0.1,0,0.2h11.6c0-0.1,0-0.2,0-0.2v-7.1
		C41.8,15.9,40.8,14.8,39.5,14.8L39.5,14.8z M39.5,14.8"/>
	<path class="st1" d="M6.5,14.1c2.4,0,4.4-2,4.4-4.4c0-2.4-2-4.4-4.4-4.4c-2.4,0-4.4,2-4.4,4.4C2.1,12.1,4,14.1,6.5,14.1L6.5,14.1z
		 M6.5,14.1"/>
	<path class="st1" d="M10,14.8h-7c-1.3,0-2.3,1.2-2.3,2.6v7.1c0,0.1,0,0.1,0,0.2h11.6c0-0.1,0-0.2,0-0.2v-7.1
		C12.3,15.9,11.2,14.8,10,14.8L10,14.8z M10,14.8"/>
</g>
</svg>
