<?xml version="1.0" encoding="utf-8"?>
<!-- Generator: Adobe Illustrator 19.1.0, SVG Export Plug-In . SVG Version: 6.00 Build 0)  -->
<svg version="1.1" id="Layer_1" xmlns="http://www.w3.org/2000/svg" xmlns:xlink="http://www.w3.org/1999/xlink" x="0px" y="0px"
	 viewBox="0 0 43 32" style="enable-background:new 0 0 43 32;" xml:space="preserve">
<style type="text/css">
	.st0{clip-path:url(#SVGID_2_);fill:#05417C;}
</style>
<g>
	<g>
		<defs>
			<rect id="SVGID_1_" x="10.7" y="1" width="21.5" height="25.4"/>
		</defs>
		<clipPath id="SVGID_2_">
			<use xlink:href="#SVGID_1_"  style="overflow:visible;"/>
		</clipPath>
		<path class="st0" d="M32.2,24.3l-0.5-1.6c-1-3-3.8-5-6.9-5.1c-0.3,0.2-0.6,0.4-0.9,0.6c-0.4,1.2-2,1.5-2.8,0.6
			c-1-0.1-2-0.5-2.8-1.2c-3.1,0.1-5.9,2.2-6.9,5.1l-0.5,1.6c-0.2,0.5-0.1,1,0.2,1.3c0.3,0.4,0.7,0.6,1.2,0.6h18.5
			c0.5,0,0.9-0.2,1.2-0.6C32.3,25.3,32.3,24.8,32.2,24.3L32.2,24.3z M32.2,24.3"/>
		<path class="st0" d="M23.6,16.4c1.8-1.3,3.1-4.1,3.1-6.8c0-7.7-10.3-7.7-10.3,0c0,3.3,1.9,6.7,4.3,7.4c0.2-0.7,0.9-1.2,1.6-1.2
			C22.8,15.8,23.2,16,23.6,16.4L23.6,16.4z M23.6,16.4"/>
		<path class="st0" d="M14.1,12.8c0.3,1,1.6,0.7,1.6-0.2c0-3.7,0.2-4.1-0.3-4.5c1.1-7,11-7,12.1,0c-0.5,0.4-0.3,0.8-0.3,4.5
			c0,0.3,0.2,0.5,0.4,0.7c0,2.9-1.2,2.7-4.7,3.7c-0.5-0.6-1.5-0.2-1.5,0.6c0,1,1.4,1.2,1.7,0.2c2.8-0.8,5.4-1,5.4-3.8v-0.6
			c0.2-0.1,0.4-0.3,0.4-0.5c2.7-0.1,2.7-4.2,0-4.2c-0.1-0.2-0.2-0.4-0.4-0.5c0.1-0.8-0.1-1.9-0.6-3c-3.4-6.9-13.3-4.2-13.4,2.5
			c0,0.2,0,0.4,0,0.5c-0.2,0.1-0.3,0.3-0.4,0.5c-1.1,0-2.1,1-2.1,2.1C12,11.8,12.9,12.8,14.1,12.8L14.1,12.8z M14.1,12.8"/>
	</g>
</g>
</svg>
