<?xml version="1.0" encoding="utf-8"?>
<!-- Generator: Adobe Illustrator 19.1.0, SVG Export Plug-In . SVG Version: 6.00 Build 0)  -->
<svg version="1.1" id="Layer_1" xmlns="http://www.w3.org/2000/svg" xmlns:xlink="http://www.w3.org/1999/xlink" x="0px" y="0px"
	 viewBox="0 0 244 246" style="enable-background:new 0 0 244 246;" xml:space="preserve">
<style type="text/css">
	.st0{fill:#05417C;}
	.st1{fill:none;stroke:#DD5F13;stroke-miterlimit:10;}
	.st2{fill:#DD5F13;}
	.st3{fill:#F0F0F0;}
</style>
<g>
	<rect x="4.4" y="280.8" style="fill:none;" width="243.4" height="38.2"/>
	<text transform="matrix(1 0 0 1 63.5522 302.4581)" class="st0" style="font-family:'UniversLTStd-Light'; font-size:30px;">Investors</text>
	<g>
		<circle class="st1" cx="124" cy="122.7" r="119.6"/>
		<path class="st2" d="M107.3,150.9l-9.9-19.7h-7.2c0,0-9.7,2.6-11.2,9.9c-1.5,7.3,0,17.5,0,17.5s0,6.2,3.2,6.2s49.2,0,49.2,0
			s3.7-0.7,3.7-3.6c0-2.9,0-18.6,0-18.6s0-8.6-9.7-11.4h-8.7L107.3,150.9z"/>
		<path class="st2" d="M136.2,132.4c0,0,12.9,0.2,13.4-12.9c13.9,0.5,15.7,10.2,15.7,10.2V148c0,0,1.7,3.3-2.7,5.3
			c-4.5,2-21.1,1.2-21.1,1.2l-0.2-12.1C141.2,142.3,141.9,136.9,136.2,132.4z"/>
		<path class="st2" d="M125,92.4l-4.5-5.5c0,0,7.3-8.9,13.4-9.7c7.2-0.9,18.9,0.4,22.1,15.2c3.1,14-9.9,21.1-13.2,21.9
			c11.9-6.5,8.5-15.4,8.5-15.4s-12.5,3-21.4-10.2L125,92.4z"/>
		<ellipse class="st2" cx="107.3" cy="107.1" rx="16.7" ry="19.1"/>
		<ellipse class="st3" cx="107.1" cy="109.7" rx="11.8" ry="12.1"/>
		<ellipse class="st2" cx="107.7" cy="97.6" rx="9.6" ry="9.6"/>
	</g>
</g>
</svg>
