<?xml version="1.0" encoding="utf-8"?>
<!-- Generator: Adobe Illustrator 19.1.0, SVG Export Plug-In . SVG Version: 6.00 Build 0)  -->
<svg version="1.1" id="Layer_1" xmlns="http://www.w3.org/2000/svg" xmlns:xlink="http://www.w3.org/1999/xlink" x="0px" y="0px"
	 viewBox="0 0 244 246" style="enable-background:new 0 0 244 246;" xml:space="preserve">
<style type="text/css">
	.st0{fill:none;stroke:#DD5F13;stroke-miterlimit:10;}
	.st1{fill:#DD5F13;}
	.st2{fill:#05417C;}
</style>
<g>
	<g>
		<circle class="st0" cx="124.4" cy="122.4" r="119.6"/>
		<path class="st1" d="M124.4,73L124.4,73C97.1,73,75,95.1,75,122.4s22.1,49.4,49.4,49.4h0c27.3,0,49.4-22.1,49.4-49.4
			S151.6,73,124.4,73z M135.1,142.9c-2.4,2.1-5.4,3.3-9,3.6v5.7h-5.3v-5.8c-2.3-0.3-4.5-1.1-6.3-2.2c-2.7-1.6-5-4.2-6.9-7.7l8.1-4.5
			c2.4,4.1,5.2,6.2,8.4,6.2c1.7,0,3-0.4,4.2-1.3c1.1-0.9,1.7-1.9,1.7-3.1c0-1.1-0.4-2.1-1.3-3.2c-0.9-1.1-2.7-2.7-5.6-4.9
			c-5.5-4.2-9.1-7.4-10.7-9.6c-1.6-2.3-2.4-4.5-2.4-6.7c0-3.2,1.3-6,4-8.3c1.9-1.7,4.2-2.7,6.8-3.2v-6.4h5.3v6.3
			c1.7,0.2,3.4,0.7,5,1.5c2.3,1.1,4.8,3,7.4,5.9l-7.1,5.8c-2.5-3.2-5.1-4.8-7.7-4.8c-1.3,0-2.3,0.3-3.1,0.9
			c-0.8,0.6-1.2,1.3-1.2,2.1c0,0.8,0.3,1.5,0.9,2.2c0.8,0.9,3.1,2.9,7.1,6c3.7,2.8,5.9,4.6,6.7,5.4c2,1.8,3.3,3.6,4.2,5.2
			c0.8,1.7,1.2,3.5,1.2,5.4C139.4,137.3,137.9,140.4,135.1,142.9z"/>
	</g>
	<rect x="4.7" y="280.5" style="fill:none;" width="239.3" height="38.2"/>
	<text transform="matrix(1 0 0 1 33.9233 302.1652)" class="st2" style="font-family:'UniversLTStd-Light'; font-size:30px;">Capital Flows</text>
</g>
</svg>
