<?xml version="1.0" encoding="utf-8"?>
<!-- Generator: Adobe Illustrator 19.1.0, SVG Export Plug-In . SVG Version: 6.00 Build 0)  -->
<svg version="1.1" id="Layer_1" xmlns="http://www.w3.org/2000/svg" xmlns:xlink="http://www.w3.org/1999/xlink" x="0px" y="0px"
	 viewBox="0 0 244 246" style="enable-background:new 0 0 244 246;" xml:space="preserve">
<style type="text/css">
	.st0{fill:#05417C;}
	.st1{fill:none;stroke:#DD5F13;stroke-miterlimit:10;}
	.st2{fill:none;stroke:#DD5F13;stroke-width:2;stroke-miterlimit:10;}
</style>
<g>
	<rect x="9.4" y="280.5" style="fill:none;" width="229.2" height="38.2"/>
	<text transform="matrix(1 0 0 1 77.6243 302.1652)" class="st0" style="font-family:'UniversLTStd-Light'; font-size:30px;">Trends</text>
	<g>
		<circle class="st1" cx="124.4" cy="122.4" r="119.6"/>
		<polyline class="st2" points="122.8,81.4 122.8,90.3 82,90.3 82,141.8 166.5,141.8 166.5,90.1 129.2,90.1 		"/>
		<polyline class="st2" points="87.1,131.1 94.9,131.1 105.5,118.7 107.5,118.7 117,131.1 118.4,131.1 138.1,107.6 140.1,107.6 
			152.1,119.4 153.8,119.4 158.7,111.6 		"/>
		<line class="st2" x1="82" y1="147.7" x2="166.5" y2="147.7"/>
		<line class="st2" x1="98.2" y1="167.3" x2="103.5" y2="147.7"/>
		<line class="st2" x1="122.9" y1="161.9" x2="122.9" y2="147.7"/>
		<line class="st2" x1="147.6" y1="167.3" x2="141.4" y2="147.7"/>
	</g>
</g>
</svg>
