<?xml version="1.0" encoding="utf-8"?>
<!-- Generator: Adobe Illustrator 19.1.0, SVG Export Plug-In . SVG Version: 6.00 Build 0)  -->
<svg version="1.1" id="Layer_1" xmlns="http://www.w3.org/2000/svg" xmlns:xlink="http://www.w3.org/1999/xlink" x="0px" y="0px"
	 viewBox="0 0 270 28" style="enable-background:new 0 0 270 28;" xml:space="preserve">
<style type="text/css">
	.st0{fill:#FFFFFF;}
	.st1{fill:#DD5F13;}
</style>
<g>
	<path class="st0" d="M151.5,3.1l-2,0.7c-1.2-1.2-2.7-1.8-4.6-1.8c-1.6,0-2.9,0.4-3.8,1.1c-1,0.7-1.4,1.7-1.4,2.9
		c0,1.2,0.5,2.2,1.4,2.9c1,0.7,2.2,1.1,3.9,1.1c1.9,0,3.4-0.6,4.6-1.8l1.9,1c-1.7,1.9-3.8,2.8-6.6,2.8c-2.3,0-4.1-0.6-5.5-1.7
		c-1.4-1.1-2.1-2.6-2.1-4.3c0-1.8,0.8-3.3,2.4-4.5c1.4-1,3.1-1.5,5-1.5C147.5,0,149.8,1,151.5,3.1"/>
	<path class="st0" d="M167.9,11.7h-2.4l-1.3-2.4h-7.6l-1.3,2.4h-2.4L159,0.4h2.7L167.9,11.7z M163.1,7.3l-2.7-5l-2.7,5H163.1z"/>
	<path class="st0" d="M179.2,0.4c1.2,0,2.2,0.3,2.9,1c0.7,0.6,1.1,1.5,1.1,2.6c0,1.1-0.4,2-1.1,2.6c-0.7,0.6-1.8,0.9-3.2,0.9h-6.6
		v4.1h-2.2V0.4H179.2z M178.9,5.5c1.3,0,2-0.5,2-1.5c0-1.1-0.7-1.6-2.1-1.6h-6.5v3.2H178.9z"/>
	<rect x="185.4" y="0.4" class="st0" width="2.2" height="11.3"/>
	<polygon class="st0" points="203,2.3 197.6,2.3 197.6,11.7 195.4,11.7 195.4,2.3 190,2.3 190,0.4 203,0.4 	"/>
	<path class="st0" d="M218.7,11.7h-2.4L215,9.2h-7.6l-1.3,2.4h-2.4l6.2-11.3h2.7L218.7,11.7z M213.9,7.3l-2.7-5l-2.7,5H213.9z"/>
	<polygon class="st0" points="231.8,11.7 220.9,11.7 220.9,0.4 223.1,0.4 223.1,9.7 231.8,9.7 	"/>
	<path class="st0" d="M151.3,26.7h-2.4l-1.3-2.4H140l-1.3,2.4h-2.4l6.2-11.3h2.7L151.3,26.7z M146.5,22.3l-2.7-5l-2.7,5H146.5z"/>
	<polygon class="st0" points="166.6,26.7 163.4,26.7 155.7,17.3 155.7,26.7 153.5,26.7 153.5,15.4 156.8,15.4 164.4,24.8 
		164.4,15.4 166.6,15.4 	"/>
	<path class="st0" d="M183.8,26.7h-2.4l-1.3-2.4h-7.6l-1.3,2.4h-2.4l6.2-11.3h2.7L183.8,26.7z M179,22.3l-2.7-5l-2.7,5H179z"/>
	<polygon class="st0" points="196.9,26.7 186,26.7 186,15.4 188.2,15.4 188.2,24.7 196.9,24.7 	"/>
	<polygon class="st0" points="212.5,15.4 206.1,22.2 206.1,26.7 203.9,26.7 203.9,22.2 197.5,15.4 200.2,15.4 205,20.5 209.8,15.4 	
		"/>
	<polygon class="st0" points="226.1,17.4 220.7,17.4 220.7,26.7 218.5,26.7 218.5,17.4 213.1,17.4 213.1,15.4 226.1,15.4 	"/>
	<rect x="228.4" y="15.4" class="st0" width="2.2" height="11.3"/>
	<path class="st0" d="M248,18.1l-2,0.7c-1.2-1.2-2.7-1.8-4.6-1.8c-1.6,0-2.9,0.4-3.8,1.1c-1,0.7-1.4,1.7-1.4,2.9
		c0,1.2,0.5,2.2,1.4,2.9c1,0.7,2.2,1.1,3.9,1.1c1.9,0,3.4-0.6,4.6-1.8l1.9,1c-1.7,1.9-3.9,2.8-6.6,2.8c-2.3,0-4.1-0.6-5.5-1.7
		c-1.4-1.1-2.1-2.6-2.1-4.3c0-1.8,0.8-3.3,2.4-4.5c1.4-1,3.1-1.5,5-1.5C244,15,246.3,16.1,248,18.1"/>
	<path class="st0" d="M261.3,18.2c-1.5-0.8-3.1-1.2-4.8-1.2c-2.5,0-3.8,0.4-3.8,1.3c0,0.5,0.5,0.9,1.4,1c1.3,0.1,2.6,0.2,3.9,0.4
		c1.8,0.2,3.2,0.5,3.9,1c0.9,0.5,1.3,1.3,1.3,2.4c0,1.2-0.5,2.1-1.6,2.8c-1.1,0.7-2.7,1-4.7,1c-2.9,0-5.2-0.7-7-2l1.2-1.6
		c1.6,1.1,3.5,1.6,5.7,1.6c1.3,0,2.3-0.2,3-0.5c0.7-0.3,1-0.8,1-1.3c0-0.6-0.4-1-1.3-1.3c-0.5-0.1-1.2-0.2-2.2-0.3
		c-1.6-0.1-2.5-0.1-2.9-0.2c-1.4-0.1-2.4-0.4-3.1-0.9c-0.7-0.5-1-1.1-1-2c0-1.1,0.5-1.9,1.6-2.6c1.1-0.6,2.5-0.9,4.5-0.9
		c2.5,0,4.6,0.6,6.2,1.7L261.3,18.2z"/>
	<path class="st0" d="M30.2,27h-5.7l-6.7-9.4H5V27H0V1.4h20.7c2.7,0,4.9,0.7,6.5,2.2c1.6,1.5,2.4,3.4,2.4,5.9c0,4.3-2.1,6.9-6.4,7.8
		L30.2,27z M20,13.1c3,0,4.5-1.2,4.5-3.5c0-2.5-1.6-3.7-4.8-3.7H5v7.2H20z"/>
	<path class="st0" d="M101.6,27h-5.5l-2.9-5.5H75.9L73,27h-5.5l14-25.6h6.2L101.6,27z M90.6,17L84.6,5.6L78.4,17H90.6z"/>
	<polygon class="st0" points="131.3,27 106.5,27 106.5,1.4 111.5,1.4 111.5,22.5 131.3,22.5 	"/>
	<rect x="35" y="21" class="st1" width="27.5" height="5.9"/>
	<rect x="35" y="1.4" class="st1" width="23.6" height="5.9"/>
	<rect x="35" y="11.2" class="st1" width="19" height="5.9"/>
	<path class="st0" d="M268.9,16.7c0,1.4-1.1,2.5-2.5,2.5c-1.4,0-2.5-1.1-2.5-2.5c0-1.4,1.1-2.5,2.5-2.5
		C267.8,14.2,268.9,15.3,268.9,16.7 M264.3,16.7c0,1.1,0.9,2.1,2.1,2.1c1.2,0,2.1-1,2.1-2.1c0-1.2-0.9-2.1-2.1-2.1
		C265.3,14.6,264.3,15.5,264.3,16.7 M266.8,18l-0.6-1.1h0V18h-0.6v-2.6h0.9c0.6,0,0.9,0.3,0.9,0.7c0,0.4-0.2,0.7-0.6,0.7
		c0.1,0.1,0.1,0.2,0.2,0.3l0.5,0.8H266.8z M266.4,15.8h-0.2v0.7h0.2c0.4,0,0.5-0.2,0.5-0.4C266.8,15.9,266.7,15.8,266.4,15.8"/>
</g>
</svg>
